<svg viewBox="0 0 167.309 167.31" xmlns="http://www.w3.org/2000/svg" xmlns:xlink="http://www.w3.org/1999/xlink" width="167.309082" height="167.309570" fill="none" customFrame="#000000">
	<rect id="Arrow" width="122.653961" height="122.653961" x="0.000000" y="0.000000" fill="rgb(255,255,255)" fill-opacity="0" transform="matrix(0.495423,0.868652,-0.868652,0.495423,106.543,0)" />
	<path id="Vector" d="M0.0488886 60.2759C-0.11096 60.2127 -1.14316 86.0555 23.8303 83.1623C44.9187 80.7192 59.2811 61.2552 58.599 41.8921C58.3071 33.6017 50.1121 19.4106 40.2814 27.1307C31.4574 34.0602 31.0377 48.3695 35.9322 57.6789C46.2714 77.3448 64.5351 73.1766 77.089 58.1897C90.9972 41.5858 93.5359 20.5369 90.8823 0" stroke="rgb(108,95,188)" stroke-linecap="round" stroke-linejoin="round" stroke-width="2.94369531" transform="matrix(0.495423,0.868652,-0.868652,0.495423,89.6099,17.2832)" />
	<path id="Vector" d="M0 22.2592C7.69058 18.4579 11.3421 8.1339 12.0431 0C13.7778 7.33418 19.1341 13.6536 25.3054 17.6894C27.1847 18.9186 29 20.2437 31.2466 20.6895" stroke="rgb(108,95,188)" stroke-linecap="round" stroke-linejoin="round" stroke-width="2.94369531" transform="matrix(0.495423,0.868652,-0.868652,0.495423,134.535,81.7598)" />
</svg>
