<svg viewBox="0 0 531 818" xmlns="http://www.w3.org/2000/svg" xmlns:xlink="http://www.w3.org/1999/xlink" width="531.000000" height="818.000000" fill="none" customFrame="#000000">
	<defs>
		<clipPath id="clipPath_0">
			<rect width="531.000000" height="818.000000" x="0.000000" y="0.000000" fill="rgb(255,255,255)" />
		</clipPath>
	</defs>
	<rect id="Left" width="531.000000" height="818.000000" x="0.000000" y="0.000000" />
	<g id="Left" customFrame="url(#clipPath_0)">
		<rect id="Left" width="531.000000" height="818.000000" x="0.000000" y="0.000000" fill="rgb(108,95,188)" />
		<g id="Group 39886">
			<g id="Arrow 8">
				<g id="Group 39874">
					<path id="Vector" d="M0 51.3813C21.9463 40.7091 50.822 31.8772 79.1666 35.7592C86.3459 36.7425 93.1966 39.0156 98.9686 42.1326C107.76 46.8801 114.049 53.5853 115.186 60.6729C116.964 71.7615 111.422 83.4611 94.1745 87.901C85.1846 90.2152 75.738 89.7287 70.0547 84.2252C61.3719 75.8171 69.2271 62.4782 77.8802 55.3975C83.863 50.5019 91.0035 46.0471 98.9686 42.1326M287.304 0.611242C259.821 -1.26923 227.921 0.70849 206.877 13.3751C201.546 16.5833 197.552 20.7854 195.17 25.3527C191.541 32.3092 191.653 40.1132 196.479 46.5445C204.031 56.6064 218.337 64.7755 236.707 62.8804C246.282 61.8927 253.956 58.361 254.311 51.7836C254.852 41.7349 237.227 32.9278 224.041 29.7316C214.924 27.5217 205.178 26.0704 195.17 25.3527M195.17 25.3527C160.002 22.8311 124.379 27.6002 98.6199 42.1226" fill-rule="evenodd" stroke="rgb(248.891,248.891,248.891)" stroke-linecap="round" stroke-width="4" transform="matrix(0.985448,0.169975,-0.470896,0.882189,133.008,109.384)" />
					<path id="Vector 219" d="M0 0C6.36419 2.87922 20.62 9.78936 26.7296 14.3961" stroke="rgb(248.891,248.891,248.891)" stroke-linecap="round" stroke-width="4" transform="matrix(0.990676,0.136236,-0.391587,0.920141,400.518,142.636)" />
					<path id="Vector 220" d="M0 0C6.36419 2.87922 20.62 9.78936 26.7296 14.3961" stroke="rgb(248.891,248.891,248.891)" stroke-linecap="round" stroke-width="4" transform="matrix(-0.990676,-0.136236,-0.391587,0.920141,421.367,159.524)" />
				</g>
			</g>
		</g>
		<g id="Group 39876">
			<path id="Vector" d="M87.1831 103.581C85.4072 100.669 83.7359 97.6848 82 94.7498C84.1375 91.7477 85.7139 88.2725 87.255 84.9355C89.632 88.4756 91.5658 91.8876 93.0585 94.9929C91.3402 97.9818 89.2133 100.803 87.1831 103.581Z" fill-rule="evenodd" stroke="rgb(170,156.188,255)" stroke-linecap="round" stroke-linejoin="round" stroke-width="3.50080204" />
			<path id="Vector" d="M102.061 56.8859C100.95 56.225 99.6333 55.9844 98.3369 55.7844C103.603 55.6251 105.432 50.7635 106.165 47C105.91 50.3754 107.911 54.0213 112 54.3577C107.929 56.4698 106.532 60.3454 106.154 64.2559C106.239 61.4203 104.93 58.5925 102.061 56.8859Z" fill-rule="evenodd" stroke="rgb(165.43,150.875,255)" stroke-linecap="round" stroke-linejoin="round" stroke-width="3.02784324" />
		</g>
	</g>
</svg>
