<svg viewBox="0 0 21.3369 17.3706" xmlns="http://www.w3.org/2000/svg" xmlns:xlink="http://www.w3.org/1999/xlink" width="21.336914" height="17.370605" fill="none" customFrame="#000000">
	<path id="Path 6" d="M18.8268 2.76125C19.7305 2.66085 20.5338 2.40982 21.3371 2.05838C20.7848 2.91186 20.0317 3.71514 19.1783 4.36779L19.1783 4.92004C19.1783 10.6936 14.8104 17.3708 6.72745 17.3708C4.21721 17.3708 1.95799 16.6679 0 15.4128C0.351436 15.463 0.702869 15.463 1.0543 15.463C3.1127 15.463 4.97028 14.7601 6.47643 13.6054C4.51844 13.5552 2.91188 12.3001 2.35963 10.543C2.61065 10.5931 2.86168 10.6434 3.1629 10.6434C3.56455 10.6434 3.96618 10.5931 4.31762 10.4927C2.30942 10.0911 0.803276 8.28375 0.803276 6.17515L0.803276 6.12495C1.40574 6.47639 2.1086 6.6772 2.81147 6.6772C1.60656 5.87393 0.853482 4.51841 0.853482 3.01227C0.853482 2.209 1.0543 1.45593 1.45594 0.803276C3.61475 3.46411 6.82787 5.17107 10.4928 5.37189C10.4426 5.07065 10.3924 4.71923 10.3924 4.36779C10.3924 1.95797 12.3504 0 14.7602 0C16.0154 0 17.1701 0.552246 17.9734 1.40572C18.9272 1.20491 19.8811 0.853477 20.7346 0.351432C20.4334 1.35552 19.7305 2.209 18.8268 2.76125Z" fill="rgb(108,95,188)" fill-rule="evenodd" />
	<path id="Path 6" d="M21.3371 2.05838C20.7848 2.91186 20.0317 3.71514 19.1783 4.36779L19.1783 4.92004C19.1783 10.6936 14.8104 17.3708 6.72745 17.3708C4.21721 17.3708 1.95799 16.6679 0 15.4128C0.351436 15.463 0.702869 15.463 1.0543 15.463C3.1127 15.463 4.97028 14.7601 6.47643 13.6054C4.51844 13.5552 2.91188 12.3001 2.35963 10.543C2.61065 10.5931 2.86168 10.6434 3.1629 10.6434C3.56455 10.6434 3.96618 10.5931 4.31762 10.4927C2.30942 10.0911 0.803276 8.28375 0.803276 6.17515L0.803276 6.12495C1.40574 6.47639 2.1086 6.6772 2.81147 6.6772C1.60656 5.87393 0.853482 4.51841 0.853482 3.01227C0.853482 2.209 1.0543 1.45593 1.45594 0.803276C3.61475 3.46411 6.82787 5.17107 10.4928 5.37189C10.4426 5.07065 10.3924 4.71923 10.3924 4.36779C10.3924 1.95797 12.3504 0 14.7602 0C16.0154 0 17.1701 0.552246 17.9734 1.40572C18.9272 1.20491 19.8811 0.853477 20.7346 0.351432C20.4334 1.35552 19.7305 2.209 18.8268 2.76125C19.7305 2.66085 20.5338 2.40982 21.3371 2.05838Z" fill-rule="evenodd" stroke="rgb(112,112,112)" stroke-opacity="0" stroke-width="0" />
</svg>
