<svg viewBox="0 0 9.88379 21.3369" xmlns="http://www.w3.org/2000/svg" xmlns:xlink="http://www.w3.org/1999/xlink" width="9.883789" height="21.336914" fill="none" customFrame="#000000">
	<path id="Path 13" d="M6.53709 10.6685L9.51799 10.6685L9.88407 6.90317L6.53709 6.90317L6.53709 4.7067C6.53709 3.86996 7.11235 3.66077 7.47843 3.66077L9.83177 3.66077L9.83177 0L6.53709 0C2.92862 0 2.09187 2.71943 2.09187 4.44522L2.09187 6.90317L0 6.90317L0 10.6685L2.09187 10.6685L2.09187 21.3371L6.53709 21.3371L6.53709 10.6685Z" fill="rgb(8,20,32)" fill-rule="evenodd" />
	<path id="Path 13" d="M9.51799 10.6685L9.88407 6.90317L6.53709 6.90317L6.53709 4.7067C6.53709 3.86996 7.11235 3.66077 7.47843 3.66077L9.83177 3.66077L9.83177 0L6.53709 0C2.92862 0 2.09187 2.71943 2.09187 4.44522L2.09187 6.90317L0 6.90317L0 10.6685L2.09187 10.6685L2.09187 21.3371L6.53709 21.3371L6.53709 10.6685L9.51799 10.6685Z" fill-rule="evenodd" stroke="rgb(112,112,112)" stroke-opacity="0" stroke-width="0" />
</svg>
