<svg viewBox="0 0 21.3379 20.3594" xmlns="http://www.w3.org/2000/svg" xmlns:xlink="http://www.w3.org/1999/xlink" width="21.337891" height="20.359375" fill="none" customFrame="#000000">
	<path id="Path 7" d="M2.58806 0C1.03522 0 0 1.03522 0 2.35799C0 3.68076 0.977711 4.71599 2.53054 4.71599L2.58806 4.71599C4.1984 4.71599 5.17611 3.68077 5.17611 2.35799C5.1186 1.03522 4.14089 0 2.58806 0ZM21.3376 20.3592L21.3376 12.4801C21.3376 8.28173 19.0371 6.26881 16.0465 6.26881C13.5734 6.26881 12.5382 7.6491 11.9056 8.56929L11.9056 6.61389L7.3046 6.61389C7.36211 7.87915 7.3046 20.3592 7.3046 20.3592L11.9056 20.3592L11.9056 12.6526C11.9056 12.2501 11.9631 11.8475 12.0781 11.5599C12.4232 10.7547 13.1709 9.89207 14.4361 9.89207C16.104 9.89207 16.7366 11.1573 16.7366 12.9977L16.7366 20.3592L21.3376 20.3592ZM11.9056 8.56929L11.9056 8.62679L11.8481 8.62679C11.9056 8.62679 11.9056 8.56929 11.9056 8.56929ZM4.77413 20.3593L0.230646 20.3593L0.230646 6.61391L4.77413 6.61391L4.77413 20.3593Z" fill="rgb(8,20,32)" fill-rule="evenodd" />
	<path id="Path 7" d="M0 2.35799C0 3.68076 0.977711 4.71599 2.53054 4.71599L2.58806 4.71599C4.1984 4.71599 5.17611 3.68077 5.17611 2.35799C5.1186 1.03522 4.14089 0 2.58806 0C1.03522 0 0 1.03522 0 2.35799ZM11.9056 8.56929C11.9056 8.56929 11.9056 8.62679 11.8481 8.62679L11.9056 8.62679L11.9056 8.56929L11.9056 6.61389L7.3046 6.61389C7.36211 7.87915 7.3046 20.3592 7.3046 20.3592L11.9056 20.3592L11.9056 12.6526C11.9056 12.2501 11.9631 11.8475 12.0781 11.5599C12.4232 10.7547 13.1709 9.89207 14.4361 9.89207C16.104 9.89207 16.7366 11.1573 16.7366 12.9977L16.7366 20.3592L21.3376 20.3592L21.3376 12.4801C21.3376 8.28173 19.0371 6.26881 16.0465 6.26881C13.5734 6.26881 12.5382 7.6491 11.9056 8.56929M0.230646 20.3593L0.230646 6.61391L4.77413 6.61391L4.77413 20.3593L0.230646 20.3593Z" fill-rule="evenodd" stroke="rgb(112,112,112)" stroke-opacity="0" stroke-width="0" />
</svg>
