<svg viewBox="0 0 21.3369 21.416" xmlns="http://www.w3.org/2000/svg" xmlns:xlink="http://www.w3.org/1999/xlink" width="21.336914" height="21.416016" fill="none" customFrame="#000000">
	<g id="Group 888">
		<path id="Path 8" d="M10.6178 0C12.0373 0.0506994 13.5075 0.0506994 14.9269 0.101392C16.1943 0.152085 17.3603 0.354867 18.4756 1.0139C19.8951 1.87572 20.7569 3.14309 21.0611 4.76533C21.2131 5.72853 21.2638 6.74243 21.3145 7.70564C21.3483 9.12504 21.3371 10.5444 21.3258 11.9638L21.3258 11.964C21.3202 12.6737 21.3145 13.3835 21.3145 14.0932C21.3145 15.2085 21.2638 16.3238 20.909 17.3884C20.1992 19.4669 18.7291 20.7342 16.5999 21.1398C15.6367 21.3426 14.6228 21.3426 13.6596 21.3933C12.242 21.427 10.8469 21.4158 9.44431 21.4046C8.74023 21.3989 8.03427 21.3933 7.32264 21.3933C6.20735 21.3933 5.09206 21.3426 4.02746 20.9877C1.94895 20.278 0.68157 18.8078 0.276006 16.6786C0.0732286 15.7154 0.0732286 14.7015 0.0225326 13.7383C-0.0112663 12.3189 -5.58794e-09 10.8994 0.0112663 9.47996C0.0168994 8.77023 0.0225326 8.0605 0.0225326 7.35077C0.0225326 6.23549 0.0732286 5.1202 0.428094 4.05559C1.13783 1.9771 2.60799 0.709734 4.73719 0.304173C5.7004 0.101399 6.71431 0.101399 7.67752 0.0506994C8.64073 0 9.60393 0 10.6178 0ZM19.3376 7.95916C19.3376 8.82097 19.3376 9.6321 19.3883 10.4939C19.3376 12.1668 19.3376 13.7891 19.2362 15.3099C19.1855 16.5266 18.8306 17.5912 17.8167 18.4023C17.2084 18.9093 16.4986 19.1627 15.7382 19.2134C14.9271 19.3148 14.116 19.3655 13.3048 19.3655C12.6927 19.3655 12.0862 19.3712 11.4836 19.3769C10.2895 19.3881 9.11032 19.3992 7.93113 19.3655C6.96792 19.3655 6.00471 19.3148 5.0922 19.1627C3.26717 18.8586 2.15187 17.5912 1.99979 15.7662C1.8984 14.5495 1.8477 13.2821 1.8477 12.0655C1.8477 10.139 1.8477 8.21264 1.8984 6.28623C1.94909 5.77928 1.99979 5.27233 2.15187 4.76538C2.60813 3.24453 3.67273 2.38271 5.19358 2.12924C6.05541 1.97715 6.96792 1.92646 7.88044 1.92646C9.70546 1.87577 11.4798 1.87577 13.3048 1.92646C14.2173 1.92646 15.2313 1.92646 16.1438 2.12924C17.9181 2.4841 18.9827 3.70078 19.1855 5.52581C19.2869 6.33692 19.3376 7.14805 19.3376 7.95916Z" fill="rgb(8,20,32)" fill-rule="evenodd" />
		<path id="Path 8" d="M14.9269 0.101392C16.1943 0.152085 17.3603 0.354867 18.4756 1.0139C19.8951 1.87572 20.7569 3.14309 21.0611 4.76533C21.2131 5.72853 21.2638 6.74243 21.3145 7.70564C21.3483 9.12504 21.3371 10.5444 21.3258 11.9638L21.3258 11.964C21.3202 12.6737 21.3145 13.3835 21.3145 14.0932C21.3145 15.2085 21.2638 16.3238 20.909 17.3884C20.1992 19.4669 18.7291 20.7342 16.5999 21.1398C15.6367 21.3426 14.6228 21.3426 13.6596 21.3933C12.242 21.427 10.8469 21.4158 9.44431 21.4046C8.74023 21.3989 8.03427 21.3933 7.32264 21.3933C6.20735 21.3933 5.09206 21.3426 4.02746 20.9877C1.94895 20.278 0.68157 18.8078 0.276006 16.6786C0.0732286 15.7154 0.0732286 14.7015 0.0225326 13.7383C-0.0112663 12.3189 -5.58794e-09 10.8994 0.0112663 9.47996C0.0168994 8.77023 0.0225326 8.0605 0.0225326 7.35077C0.0225326 6.23549 0.0732286 5.1202 0.428094 4.05559C1.13783 1.9771 2.60799 0.709734 4.73719 0.304173C5.7004 0.101399 6.71431 0.101399 7.67752 0.0506994C8.64073 0 9.60393 0 10.6178 0C12.0373 0.0506994 13.5075 0.0506994 14.9269 0.101392ZM19.3883 10.4939C19.3376 12.1668 19.3376 13.7891 19.2362 15.3099C19.1855 16.5266 18.8306 17.5912 17.8167 18.4023C17.2084 18.9093 16.4986 19.1627 15.7382 19.2134C14.9271 19.3148 14.116 19.3655 13.3048 19.3655C12.6927 19.3655 12.0862 19.3712 11.4836 19.3769C10.2895 19.3881 9.11032 19.3992 7.93113 19.3655C6.96792 19.3655 6.00471 19.3148 5.0922 19.1627C3.26717 18.8586 2.15187 17.5912 1.99979 15.7662C1.8984 14.5495 1.8477 13.2821 1.8477 12.0655C1.8477 10.139 1.8477 8.21264 1.8984 6.28623C1.94909 5.77928 1.99979 5.27233 2.15187 4.76538C2.60813 3.24453 3.67273 2.38271 5.19358 2.12924C6.05541 1.97715 6.96792 1.92646 7.88044 1.92646C9.70546 1.87577 11.4798 1.87577 13.3048 1.92646C14.2173 1.92646 15.2313 1.92646 16.1438 2.12924C17.9181 2.4841 18.9827 3.70078 19.1855 5.52581C19.2869 6.33692 19.3376 7.14805 19.3376 7.95916C19.3376 8.82097 19.3376 9.6321 19.3883 10.4939Z" fill-rule="evenodd" stroke="rgb(112,112,112)" stroke-opacity="0" stroke-width="0" />
		<path id="Path 9" d="M10.6177 16.1712C13.6594 16.1712 16.0928 13.7379 16.0928 10.6962C16.0928 7.65453 13.6594 5.22119 10.6684 5.22119C7.62664 5.22119 5.14258 7.65453 5.14258 10.6455C5.14258 13.7379 7.57595 16.1712 10.6177 16.1712ZM14.1662 10.6962C14.1662 12.6226 12.544 14.2448 10.6176 14.2448C8.64044 14.2448 7.01819 12.6226 7.06888 10.6962C7.06888 8.76976 8.64044 7.14752 10.6176 7.14752C12.544 7.14752 14.1662 8.76976 14.1662 10.6962Z" fill="rgb(8,20,32)" fill-rule="evenodd" />
		<path id="Path 9" d="M16.0928 10.6962C16.0928 7.65453 13.6594 5.22119 10.6684 5.22119C7.62664 5.22119 5.14258 7.65453 5.14258 10.6455C5.14258 13.7379 7.57595 16.1712 10.6177 16.1712C13.6594 16.1712 16.0928 13.7379 16.0928 10.6962ZM10.6176 14.2448C8.64044 14.2448 7.01819 12.6226 7.06888 10.6962C7.06888 8.76976 8.64044 7.14752 10.6176 7.14752C12.544 7.14752 14.1662 8.76976 14.1662 10.6962C14.1662 12.6226 12.544 14.2448 10.6176 14.2448Z" fill-rule="evenodd" stroke="rgb(112,112,112)" stroke-opacity="0" stroke-width="0" />
		<path id="Path 10" d="M17.5641 4.96758C17.5641 5.67731 17.0064 6.28566 16.2967 6.28566C15.587 6.28566 14.9786 5.67731 15.0293 4.96758C15.0293 4.25785 15.587 3.7002 16.2967 3.7002C17.0064 3.7002 17.5641 4.25784 17.5641 4.96758Z" fill="rgb(8,20,32)" fill-rule="nonzero" />
		<path id="Path 10" d="M16.2967 6.28566C15.587 6.28566 14.9786 5.67731 15.0293 4.96758C15.0293 4.25785 15.587 3.7002 16.2967 3.7002C17.0064 3.7002 17.5641 4.25784 17.5641 4.96758C17.5641 5.67731 17.0064 6.28566 16.2967 6.28566Z" fill-rule="nonzero" stroke="rgb(112,112,112)" stroke-opacity="0" stroke-width="0" />
	</g>
</svg>
