<svg viewBox="0 0 174.758 164.971" xmlns="http://www.w3.org/2000/svg" xmlns:xlink="http://www.w3.org/1999/xlink" width="174.757812" height="164.970703" fill="none" customFrame="#000000">
	<path id="Vector 14" d="M78.2769 0C78.2769 0 94.6295 25.3253 82.5766 46.0772C73.2903 62.0657 52.6716 72.2304 40.8054 62.7374C37.1836 59.84 32.5456 51.2146 37.1836 44.6285C41.5269 38.461 48.7733 39.9715 53.1195 41.4896C71.2557 47.8246 69.8075 73.3931 59.3972 89.5386C50.4454 103.422 32.708 112.732 19.3162 103.06C14.97 99.921 13.6015 95.1001 16.1773 89.5386C18.6876 84.1184 24.1452 83.5023 29.9401 84.951C50.3138 90.0445 47.9309 124.535 35.0105 138.07C24.8696 148.694 0 150.143 0 150.143M12.0726 154.489L0 150.143L9.65808 142.658" stroke="rgb(108,95,188)" stroke-linecap="round" stroke-linejoin="round" stroke-width="2.6500001" transform="matrix(0.630857,0.775899,-0.775899,0.630857,119.868,0)" />
</svg>
